<svg width="409" height="391" viewBox="0 0 409 391" fill="none" xmlns="http://www.w3.org/2000/svg">
<path d="M163.682 389.791C160.972 388.801 144.582 379.021 112.082 359.001C104.662 354.421 90.482 345.731 80.582 339.691C8.10196 295.421 11.022 297.251 7.40197 293.791C5.65197 292.111 3.26197 288.511 2.09197 285.791C-0.0280292 280.881 -0.0380465 280.361 0.0119535 196.671C0.0419535 150.381 0.461956 111.121 0.951956 109.441C2.32196 104.701 4.64196 100.751 7.74196 97.8614C9.30196 96.4114 23.852 87.0214 40.082 76.9914C56.312 66.9614 80.612 51.8914 94.082 43.5214C144.662 12.0714 158.062 3.91135 162.262 2.00135C167.262 -0.268651 178.762 -0.698651 184.182 1.18135C186.972 2.14135 229.682 28.2314 311.832 79.1614C318.022 83.0014 323.532 86.9814 324.082 88.0014C325.722 91.0614 325.232 94.7313 322.832 97.3713C319.962 100.531 295.262 116.001 293.082 116.001C291.482 116.001 280.732 109.441 216.082 69.0014C183.462 48.6014 179.772 46.2913 175.962 46.0413C175.472 46.0113 174.982 46.0214 174.432 46.0214H174.382C169.972 46.0414 168.272 46.9513 139.582 64.6413C128.032 71.7713 108.992 83.4314 97.282 90.5514C85.562 97.6714 68.602 108.001 59.592 113.501C50.572 119.001 42.162 124.841 40.892 126.471L38.582 129.451L38.302 195.721C38.292 198.861 38.282 201.861 38.262 204.731C38.032 257.461 38.002 264.611 41.562 268.161C42.312 268.911 43.222 269.501 44.332 270.331C46.122 271.661 55.912 277.831 66.082 284.031C76.252 290.221 91.552 299.571 100.082 304.811C108.612 310.041 125.702 320.481 138.082 328.001C150.462 335.521 167.782 346.171 176.582 351.661C185.382 357.151 194.472 362.691 196.772 363.971C201.692 366.711 203.712 370.581 202.362 374.701C201.692 376.761 198.962 379.021 192.012 383.271C186.822 386.441 181.002 389.481 179.082 390.011C174.632 391.251 167.422 391.151 163.682 389.791ZM353.282 365.801C352.372 364.891 352.082 347.691 352.082 294.491V224.371L354.832 221.791C356.342 220.381 365.232 213.081 374.582 205.581C385.812 196.571 392.262 192.031 393.582 192.221C395.562 192.501 395.582 193.371 395.862 274.501C396.012 319.601 395.902 357.471 395.612 358.661C395.172 360.461 393.972 360.991 388.332 361.881C369.532 364.831 355.412 367.001 354.972 367.001C354.702 367.001 353.942 366.461 353.282 365.801ZM289.832 375.891C288.202 374.971 288.082 371.431 288.082 324.071C288.082 284.601 288.362 273.031 289.332 272.261C292.292 269.941 328.292 252.001 329.992 252.001C331.022 252.001 332.142 252.711 332.472 253.581C332.812 254.451 333.082 280.721 333.082 311.961C333.082 356.191 332.802 368.981 331.832 369.771C331.142 370.331 322.702 371.971 313.082 373.421C303.462 374.861 294.682 376.241 293.582 376.471C292.482 376.701 290.792 376.441 289.832 375.891ZM225.832 385.441C225.422 385.011 225.082 368.091 225.082 347.821V310.971L228.332 308.971C237.872 303.101 265.742 289.931 267.332 290.541C268.962 291.171 269.082 294.231 269.082 334.981C269.082 368.821 268.802 378.971 267.832 379.721C265.362 381.631 227.182 386.831 225.832 385.441ZM142.662 239.141C142.342 238.621 150.562 212.611 160.942 181.341L179.792 124.501L187.942 124.211C193.972 123.991 196.082 124.251 196.082 125.181C196.082 126.721 195.802 127.601 175.212 189.501L158.582 239.501L150.912 239.791C146.702 239.951 142.992 239.661 142.662 239.141Z" fill="#185DF4"/>
<path d="M179.252 316.851C166.822 310.701 166.492 293.851 178.692 287.951C183.642 285.551 190.462 285.731 194.522 288.351C196.412 289.571 198.132 288.611 215.082 276.891L233.582 264.091L234.212 258.451C235.202 249.521 240.462 244.051 248.832 243.251C252.482 242.901 254.742 243.301 257.722 244.821L261.722 246.861L278.902 235.421L296.082 223.981V219.881C296.082 208.511 309.312 200.221 319.212 205.381C321.812 206.741 322.112 206.491 349.192 180.431C364.232 165.951 376.702 153.641 376.892 153.071C377.082 152.501 374.482 149.491 371.112 146.371C367.742 143.251 365.342 140.371 365.782 139.961C367.062 138.791 408.032 128.621 408.722 129.301C409.472 130.061 399.112 172.001 398.172 172.001C397.812 172.001 395.292 169.751 392.582 167.001C389.872 164.251 387.182 162.001 386.602 162.001C386.012 162.001 378.552 168.641 370.012 176.751C361.462 184.861 348.622 196.991 341.472 203.701C328.972 215.431 328.492 216.041 328.882 219.421C329.452 224.311 325.782 231.521 321.212 234.471C315.592 238.101 312.012 238.451 306.182 235.951L301.122 233.771L295.852 237.091C292.952 238.921 285.362 243.891 278.982 248.131L267.372 255.841L266.732 260.551C265.872 266.781 263.092 271.061 258.072 273.881C253.622 276.391 248.292 276.431 242.562 274.011C239.612 272.771 239.152 273.011 220.812 285.591C203.062 297.781 202.082 298.621 202.082 301.661C202.082 308.301 197.612 314.951 191.362 317.621C186.932 319.521 184.302 319.351 179.252 316.851ZM118.472 221.491C75.282 189.871 75.072 189.711 73.872 185.681C72.942 182.581 72.992 181.041 74.142 177.921C75.412 174.501 78.642 171.811 101.082 155.501C117.322 143.701 127.312 137.071 128.582 137.241C130.382 137.471 130.612 138.371 130.872 146.151L131.162 154.801L113.122 168.111C103.202 175.431 95.102 181.661 95.122 181.961C95.142 182.261 102.152 187.671 110.702 194.001C132.622 210.211 131.082 208.421 131.082 217.751C131.082 224.901 130.152 228.001 128.022 228.001C127.662 228.001 123.362 225.071 118.472 221.491ZM209.752 227.331C209.382 226.971 209.082 222.581 209.092 217.581V208.501L226.602 195.631C236.232 188.551 244.332 182.401 244.602 181.961C244.872 181.531 237.102 175.371 227.332 168.271L209.582 155.361V146.431C209.582 137.821 209.662 137.501 211.852 137.501C214.682 137.501 263.402 172.531 265.262 175.901C265.992 177.221 266.542 180.341 266.482 182.821C266.362 188.141 265.222 189.321 248.992 200.961C243.262 205.071 232.672 212.831 225.442 218.211C212.522 227.831 211.082 228.671 209.752 227.331Z" fill="#FAFAFA"/>
</svg>
